<?xml version="1.0" standalone="no"?>
<!DOCTYPE svg PUBLIC "-//W3C//DTD SVG 20010904//EN"
 "http://www.w3.org/TR/2001/REC-SVG-20010904/DTD/svg10.dtd">
<svg version="1.0" xmlns="http://www.w3.org/2000/svg"
 width="72.000000pt" height="72.000000pt" viewBox="0 0 72.000000 72.000000"
 preserveAspectRatio="xMidYMid meet">
<metadata>
Created by potrace 1.11, written by Peter Selinger 2001-2013
</metadata>
<g transform="translate(0.000000,72.000000) scale(0.100000,-0.100000)"
fill="#000000" stroke="none">
<path d="M206 705 c-10 -8 -23 -12 -27 -9 -5 3 -9 0 -9 -5 0 -6 -6 -11 -14
-11 -29 0 -124 -109 -133 -152 -3 -15 -9 -26 -12 -23 -4 2 -8 -36 -10 -86 -2
-62 1 -89 9 -89 6 0 10 -6 7 -12 -16 -49 127 -190 208 -205 41 -8 140 -11 150
-5 5 4 19 8 29 9 11 2 24 7 30 12 27 20 47 19 69 -2 141 -135 152 -142 187
-107 30 30 17 58 -61 135 -40 38 -71 71 -70 72 40 60 53 99 58 182 4 50 2 62
-9 59 -16 -6 -18 -99 -3 -110 6 -4 2 -8 -7 -8 -16 0 -24 -23 -19 -52 0 -5 -3
-8 -9 -8 -5 0 -10 -6 -10 -12 0 -7 -23 -38 -52 -68 -28 -30 -47 -48 -42 -41 4
9 -4 7 -22 -6 -46 -33 -156 -50 -183 -29 -12 9 -13 8 -6 -4 7 -12 6 -13 -6 -3
-9 7 -24 14 -35 16 -64 9 -171 120 -176 181 -1 13 -6 22 -11 19 -18 -11 -1
142 21 187 25 50 76 110 93 110 6 0 9 6 6 14 -4 10 0 12 14 9 10 -3 19 0 19 6
0 6 3 10 8 9 4 -1 28 3 53 11 26 7 63 11 83 8 20 -3 39 -1 42 4 3 5 11 9 17 8
8 0 7 -3 -2 -6 -8 -3 11 -17 45 -34 64 -31 78 -35 72 -18 -2 6 -7 10 -11 10
-4 -1 -16 8 -27 19 -11 11 -29 20 -39 20 -11 0 -23 5 -26 10 -9 15 -148 13
-164 -2 -11 -10 -13 -10 -7 0 9 15 6 15 -18 -3z"/>
<path d="M507 644 c-12 -12 -8 -20 23 -52 17 -18 30 -36 30 -41 0 -5 7 -21 14
-37 8 -15 13 -31 10 -36 -3 -4 0 -8 6 -8 18 0 23 29 9 47 -8 9 -13 18 -11 20
9 12 -70 117 -81 107z"/>
<path d="M439 594 c-14 -17 -60 -19 -76 -3 -12 12 -43 -14 -43 -38 0 -31 -37
-69 -71 -71 -19 -2 -43 -9 -54 -16 -11 -7 -29 -10 -39 -6 -31 10 -63 0 -73
-23 -10 -26 -6 -67 8 -67 5 0 9 -13 9 -30 0 -16 5 -30 10 -30 6 0 10 -5 10
-10 0 -15 47 -60 54 -53 11 11 6 22 -12 28 -22 6 -42 45 -42 80 0 30 46 85 71
85 11 0 17 5 14 10 -5 8 47 16 78 11 4 0 7 7 7 16 0 15 2 14 14 -3 14 -18 15
-18 21 -1 4 9 1 25 -6 34 -12 15 -12 16 3 10 10 -3 17 -3 17 1 -1 4 -1 17 0
30 1 19 5 22 29 18 15 -2 33 -5 40 -5 6 -1 12 -8 12 -16 0 -18 43 -37 65 -29
20 8 28 39 16 62 -13 25 -47 34 -62 16z"/>
<path d="M337 477 c-5 -14 0 -17 30 -17 46 0 100 -40 120 -88 11 -27 12 -37 2
-42 -6 -5 -9 -15 -6 -24 4 -10 1 -16 -8 -16 -7 0 -20 -6 -28 -14 -14 -15 -87
-48 -87 -41 0 3 -11 0 -25 -5 -14 -5 -25 -6 -25 -1 0 4 -11 7 -25 6 -14 -2
-27 1 -31 6 -3 5 -13 5 -25 -1 -15 -9 -19 -7 -19 5 0 17 -16 20 -25 6 -7 -13
26 -30 63 -35 16 -2 35 -7 42 -11 9 -5 11 -4 6 3 -9 16 7 15 22 0 9 -9 12 -9
12 0 0 7 3 11 8 11 23 -4 84 2 79 7 -4 4 8 14 26 23 33 17 80 77 71 92 -3 5 2
19 10 31 19 27 21 62 4 76 -7 6 -35 11 -63 13 -27 1 -56 7 -62 12 -7 5 -22 7
-32 4 -11 -3 -22 0 -24 6 -2 6 -6 3 -10 -6z"/>
<path d="M218 399 c-10 -5 -18 -14 -18 -19 0 -13 30 -40 45 -40 19 0 29 38 15
55 -14 17 -19 18 -42 4z"/>
<path d="M350 395 c-16 -19 5 -55 30 -55 11 0 20 3 21 8 0 4 2 17 5 30 2 12 1
22 -4 23 -4 0 -15 2 -24 4 -9 2 -22 -3 -28 -10z"/>
<path d="M236 286 c11 -28 106 -36 131 -11 19 19 11 30 -14 20 -10 -5 -22 -7
-28 -6 -29 8 -65 6 -69 -3 -3 -7 -5 -6 -5 2 -1 6 -5 12 -11 12 -5 0 -7 -6 -4
-14z"/>
</g>
</svg>
